<?xml version="1.0" encoding="utf-8"?>
<!-- Generator: Adobe Illustrator 21.1.0, SVG Export Plug-In . SVG Version: 6.00 Build 0)  -->
<svg version="1.1" id="Layer_1" xmlns="http://www.w3.org/2000/svg" xmlns:xlink="http://www.w3.org/1999/xlink" x="0px" y="0px"
	 viewBox="0 0 357 160" style="enable-background:new 0 0 357 160;" xml:space="preserve">
<style type="text/css">
	.st0{fill:#FFFFFF;}
	.st1{fill:#D92E10;}
</style>
<g>
	<g>
		<rect x="160" class="st0" width="197" height="160"/>
		<path class="st1" d="M158.888,1.112H1.1148v157.7733H158.888C158.888,158.8852,158.888,1.112,158.888,1.112z"/>
		<path class="st0" d="M157.7733,2.2267H2.2267v155.5466h155.5466C157.7733,157.7733,157.7733,2.2267,157.7733,2.2267z M0,0h160v160
			H0V0z"/>
		<g>
			<path d="M175.3794,21.1331h-4.9463v-2.9507H183.77v2.9507h-4.9766v16.5483h-3.4141V21.1331z"/>
			<path d="M189.4097,18.1824v7.8979h7.1748v-7.8979h3.4131v19.499h-3.4131v-8.5923h-7.1748v8.5923h-3.4141v-19.499H189.4097z"/>
			<path d="M213.8247,28.9734h-6.5381v5.8438h7.3193v2.8643h-10.7334v-19.499h10.3281v2.8638h-6.9141v5.1206h6.5381V28.9734z"/>
			<path d="M237.1392,36.9294c-1.1279,0.4048-3.2979,0.9546-5.5254,0.9546c-2.8936,0-5.1504-0.7524-6.8281-2.3726
				c-1.707-1.6489-2.6611-4.3105-2.6611-7.4062c0.0283-6.5381,4.3105-10.1255,9.9805-10.1255c2.083,0,3.7031,0.4341,4.5137,0.8101
				l-0.7236,2.8062c-0.8965-0.4048-2.0254-0.7231-3.7607-0.7231c-3.6748,0-6.4229,2.2852-6.4229,7.1167
				c0,4.7158,2.5176,7.0884,5.96,7.0884c1.0703,0,1.8223-0.145,2.1982-0.3184v-5.063h-3.0371v-2.7192h6.3066V36.9294z"/>
			<path d="M240.5503,18.1824h3.4141v16.6348h7.1748v2.8643h-10.5889V18.1824z"/>
			<path d="M259.6724,37.9705c-5.0332,0-8.042-4.1948-8.042-9.9521c0-5.9307,3.2979-10.1255,8.332-10.1255
				c5.207,0,8.042,4.3394,8.042,9.8364c0,6.7695-3.5293,10.2412-8.3027,10.2412H259.6724z M259.8462,35.1643
				c3.0088,0,4.5713-3.2979,4.5713-7.3193c0-3.6162-1.4463-7.146-4.5713-7.146c-3.124,0-4.6289,3.4429-4.6289,7.2617
				c-0.0293,3.8477,1.5918,7.2036,4.5996,7.2036H259.8462z"/>
			<path d="M270.9233,18.4426c1.0996-0.2314,2.9512-0.4053,4.7734-0.4053c2.4014,0,4.0498,0.3184,5.3232,1.2729
				c1.1279,0.7524,1.8223,1.9961,1.8223,3.5874c0,1.8228-1.0703,3.4717-3.124,4.2529v0.0869
				c2.1123,0.5493,3.8184,2.2275,3.8184,4.8022c0,1.707-0.6943,3.0381-1.7354,3.9927c-1.3018,1.2148-3.501,1.8228-6.8564,1.8228
				c-1.7939,0-3.1533-0.1162-4.0215-0.2314V18.4426z M274.3081,26.196h1.5625c2.1982,0,3.5586-1.2153,3.5586-2.8931
				c0-1.7939-1.1865-2.7485-3.3564-2.7485c-0.8965,0-1.418,0.0576-1.7646,0.1445V26.196z M274.3081,35.1643
				c0.4053,0.0869,0.9258,0.0869,1.6201,0.0869c2.1699,0,4.0215-0.9258,4.0215-3.2983c0-2.2852-1.8809-3.269-4.1367-3.269h-1.5049
				V35.1643z"/>
			<path d="M290.0737,32.3005l-1.4756,5.3809h-3.4717l5.6992-19.499h4.2529l5.6416,19.499h-3.5879l-1.5332-5.3809H290.0737z
				 M295.0786,29.6965l-1.3311-4.7158c-0.3184-1.2437-0.6367-2.6904-0.8965-3.9058h-0.0576
				c-0.2607,1.2153-0.5791,2.7197-0.8682,3.9058l-1.3311,4.7158H295.0786z"/>
			<path d="M303.2925,18.1824h3.4141v16.6348h7.1748v2.8643h-10.5889V18.1824z"/>
			<path d="M172.1108,53.1545c1.0996-0.2314,2.9512-0.4053,4.7734-0.4053c2.4014,0,4.0498,0.3184,5.3232,1.2729
				c1.1279,0.7524,1.8223,1.9961,1.8223,3.5874c0,1.8228-1.0703,3.4717-3.124,4.2529v0.0869
				c2.1123,0.5493,3.8184,2.2275,3.8184,4.8022c0,1.707-0.6943,3.0381-1.7354,3.9927c-1.3018,1.2148-3.501,1.8228-6.8564,1.8228
				c-1.7939,0-3.1533-0.1162-4.0215-0.2314V53.1545z M175.4956,60.908h1.5625c2.1982,0,3.5586-1.2153,3.5586-2.8931
				c0-1.7939-1.1865-2.7485-3.3564-2.7485c-0.8965,0-1.418,0.0576-1.7646,0.1445V60.908z M175.4956,69.8762
				c0.4053,0.0869,0.9258,0.0869,1.6201,0.0869c2.1699,0,4.0215-0.9258,4.0215-3.2983c0-2.2852-1.8809-3.269-4.1367-3.269h-1.5049
				V69.8762z"/>
			<path d="M194.7603,72.6824c-5.0332,0-8.042-4.1948-8.042-9.9521c0-5.9307,3.2979-10.1255,8.332-10.1255
				c5.207,0,8.042,4.3394,8.042,9.8364c0,6.7695-3.5293,10.2412-8.3027,10.2412H194.7603z M194.9341,69.8762
				c3.0088,0,4.5713-3.2979,4.5713-7.3193c0-3.6162-1.4463-7.146-4.5713-7.146c-3.124,0-4.6289,3.4429-4.6289,7.2617
				c-0.0293,3.8477,1.5918,7.2036,4.5996,7.2036H194.9341z"/>
			<path d="M206.0122,53.1545c1.3887-0.2603,3.1533-0.4053,5.0049-0.4053c3.2695,0,5.4971,0.6943,7.0879,2.0542
				c1.8232,1.5044,2.9219,3.9058,2.9219,7.4062c0,3.7031-1.1572,6.3066-2.8926,7.9268c-1.7363,1.6201-4.4844,2.4307-7.8984,2.4307
				c-1.7646,0-3.1826-0.1162-4.2236-0.2314V53.1545z M209.4263,69.7605c0.4336,0.0869,1.041,0.0869,1.6201,0.0869
				c3.876,0.0288,6.3936-2.3145,6.3936-7.5508c0.0283-4.3398-2.1123-6.8564-6.0469-6.8564c-0.8682,0-1.5332,0.0864-1.9668,0.1733
				V69.7605z"/>
			<path d="M227.0425,72.3933v-8.0137l-5.6123-11.4854h3.8477l2.083,4.918c0.5781,1.4175,1.0703,2.6328,1.5332,3.9922h0.0576
				c0.4346-1.3018,0.9551-2.5747,1.5332-4.021l2.0547-4.8892h3.7607l-5.8438,11.3696v8.1294H227.0425z"/>
			<path d="M243.8481,52.8943h10.2988v2.8638h-6.8848v5.4971h6.3936v2.8062h-6.3936v8.332h-3.4141V52.8943z"/>
			<path d="M264.4155,72.6824c-5.0332,0-8.042-4.1948-8.042-9.9521c0-5.9307,3.2979-10.1255,8.332-10.1255
				c5.207,0,8.042,4.3394,8.042,9.8364c0,6.7695-3.5293,10.2412-8.3027,10.2412H264.4155z M264.5894,69.8762
				c3.0088,0,4.5713-3.2979,4.5713-7.3193c0-3.6162-1.4463-7.146-4.5713-7.146c-3.124,0-4.6289,3.4429-4.6289,7.2617
				c-0.0283,3.8477,1.5908,7.2036,4.6006,7.2036H264.5894z"/>
			<path d="M275.6665,53.1545c1.2725-0.2603,3.0371-0.4053,4.8887-0.4053c2.5752,0,4.4268,0.4341,5.6709,1.5337
				c1.0703,0.9258,1.6201,2.2563,1.6201,3.9346c0,2.459-1.5039,4.166-3.3848,4.8892v0.0864
				c1.3887,0.521,2.1699,1.8228,2.6328,3.8481c0.5498,2.4302,1.0703,4.6289,1.417,5.3521h-3.5
				c-0.29-0.5786-0.7236-2.2568-1.2158-4.6577c-0.5205-2.5171-1.3887-3.356-3.2686-3.3853h-1.4756v8.043h-3.3848V53.1545z
				 M279.0513,61.8337h1.7363c2.2559,0,3.6445-1.3311,3.6445-3.2983c0-2.083-1.2725-3.1821-3.5-3.1821
				c-0.9258,0-1.5625,0.0576-1.8809,0.1733V61.8337z"/>
			<path d="M172.1108,87.866c1.1865-0.2314,2.8057-0.4043,4.8896-0.4043c2.459,0,4.2812,0.4912,5.4961,1.5615
				c1.1289,0.9551,1.8232,2.4883,1.8232,4.2822c0,1.8799-0.5791,3.3555-1.5918,4.3975c-1.3594,1.418-3.4717,2.083-5.7568,2.083
				c-0.5498,0-1.042-0.0293-1.4756-0.1162v7.4355h-3.3848V87.866z M175.4956,96.9792c0.376,0.0869,0.8389,0.1162,1.4463,0.1162
				c2.4883,0,3.9639-1.3604,3.9639-3.6455c0-2.0537-1.2734-3.3271-3.6455-3.3271c-0.8096,0-1.418,0.0869-1.7646,0.1738V96.9792z"/>
			<path d="M187.1528,87.866c1.2725-0.2598,3.0371-0.4043,4.8887-0.4043c2.5752,0,4.4268,0.4336,5.6709,1.5332
				c1.0703,0.9258,1.6201,2.2568,1.6201,3.9346c0,2.459-1.5039,4.166-3.3848,4.8887v0.0869
				c1.3887,0.5205,2.1699,1.8232,2.6328,3.8477c0.5498,2.4307,1.0703,4.6289,1.417,5.3525h-3.5
				c-0.29-0.5781-0.7236-2.2568-1.2158-4.6582c-0.5205-2.5166-1.3887-3.3555-3.2686-3.3848h-1.4756v8.043h-3.3848V87.866z
				 M190.5376,96.5457h1.7363c2.2559,0,3.6445-1.3311,3.6445-3.2979c0-2.083-1.2725-3.1826-3.5-3.1826
				c-0.9258,0-1.5625,0.0576-1.8809,0.1738V96.5457z"/>
			<path d="M209.5708,107.3943c-5.0332,0-8.042-4.1943-8.042-9.9521c0-5.9307,3.2979-10.126,8.332-10.126
				c5.207,0,8.042,4.3398,8.042,9.8369c0,6.7695-3.5293,10.2412-8.3027,10.2412H209.5708z M209.7446,104.5886
				c3.0088,0,4.5713-3.2988,4.5713-7.3193c0-3.6172-1.4463-7.1465-4.5713-7.1465c-3.124,0-4.6289,3.4434-4.6289,7.2617
				c-0.0293,3.8477,1.5918,7.2041,4.5996,7.2041H209.7446z"/>
			<path d="M220.8228,87.6062h10.2988v2.8643h-6.8848v5.4961h6.3936v2.8066h-6.3936v8.332h-3.4141V87.6062z"/>
			<path d="M244.2837,98.3972h-6.5381v5.8438h7.3193v2.8643h-10.7334v-19.499h10.3281v2.8643h-6.9141v5.1201h6.5381V98.3972z"/>
			<path d="M247.8394,103.4021c1.0127,0.6074,2.6035,1.0996,4.1953,1.0996c2.1699,0,3.3848-1.0703,3.3848-2.6621
				c0-1.5039-0.9834-2.3721-3.2119-3.3271c-2.8926-1.2148-4.7734-3.0088-4.7734-5.6123c0-3.124,2.459-5.5547,6.5391-5.5547
				c1.8516,0,3.2979,0.4336,4.1367,0.8682l-0.752,2.835c-0.666-0.3467-1.8516-0.8389-3.4717-0.8389
				c-2.1123,0-3.0381,1.1865-3.0381,2.3438c0,1.5039,1.042,2.1982,3.4717,3.2686c3.0957,1.3887,4.542,3.1533,4.542,5.7285
				c0,3.2402-2.4014,5.8154-7.001,5.8154c-1.8809,0-3.79-0.5498-4.7158-1.0996L247.8394,103.4021z"/>
			<path d="M261.6372,103.4021c1.0127,0.6074,2.6035,1.0996,4.1953,1.0996c2.1699,0,3.3848-1.0703,3.3848-2.6621
				c0-1.5039-0.9834-2.3721-3.2109-3.3271c-2.8936-1.2148-4.7744-3.0088-4.7744-5.6123c0-3.124,2.46-5.5547,6.5391-5.5547
				c1.8516,0,3.2979,0.4336,4.1367,0.8682l-0.752,2.835c-0.666-0.3467-1.8516-0.8389-3.4717-0.8389
				c-2.1123,0-3.0381,1.1865-3.0381,2.3438c0,1.5039,1.042,2.1982,3.4717,3.2686c3.0957,1.3887,4.542,3.1533,4.542,5.7285
				c0,3.2402-2.4014,5.8154-7.001,5.8154c-1.8809,0-3.79-0.5498-4.7158-1.0996L261.6372,103.4021z"/>
			<path d="M279.0229,87.6062v19.499h-3.4141v-19.499H279.0229z"/>
			<path d="M289.9858,107.3943c-5.0332,0-8.042-4.1943-8.042-9.9521c0-5.9307,3.2979-10.126,8.332-10.126
				c5.207,0,8.042,4.3398,8.042,9.8369c0,6.7695-3.5293,10.2412-8.3027,10.2412H289.9858z M290.1597,104.5886
				c3.0088,0,4.5713-3.2988,4.5713-7.3193c0-3.6172-1.4463-7.1465-4.5713-7.1465c-3.124,0-4.6289,3.4434-4.6289,7.2617
				c-0.0283,3.8477,1.5908,7.2041,4.6006,7.2041H290.1597z"/>
			<path d="M301.2378,107.1052v-19.499h3.7031l4.5127,8.3604c1.0996,2.0254,2.1992,4.3691,3.0088,6.4229h0.0586
				c-0.2031-2.5752-0.3184-5.2363-0.3184-8.3896v-6.3936h3.124v19.499h-3.4424l-4.542-8.5059
				c-1.0996-2.0254-2.2568-4.3975-3.0957-6.5674h-0.0869c0.1445,2.46,0.2021,5.0918,0.2021,8.5635v6.5098H301.2378z"/>
			<path d="M322.7593,101.7244l-1.4756,5.3809h-3.4717l5.6992-19.499h4.2529l5.6416,19.499h-3.5879l-1.5332-5.3809H322.7593z
				 M327.7642,99.1208l-1.3311-4.7158c-0.3184-1.2441-0.6367-2.6904-0.8965-3.9062h-0.0576
				c-0.2607,1.2158-0.5791,2.7197-0.8682,3.9062l-1.3311,4.7158H327.7642z"/>
			<path d="M335.978,87.6062h3.4141v16.6348h7.1748v2.8643H335.978V87.6062z"/>
			<path d="M175.6694,136.4373l-1.4756,5.3809h-3.4717l5.6992-19.499h4.2529l5.6416,19.499h-3.5879l-1.5332-5.3809H175.6694z
				 M180.6743,133.8337l-1.3311-4.7158c-0.3184-1.2441-0.6367-2.6904-0.8965-3.9062h-0.0576
				c-0.2607,1.2158-0.5791,2.7197-0.8682,3.9062l-1.3311,4.7158H180.6743z"/>
			<path d="M200.8081,141.2976c-0.752,0.4053-2.3721,0.7812-4.3975,0.7812c-5.6709,0-9.0557-3.8193-9.0557-9.7793
				c0-6.7402,4.3105-10.2412,9.5186-10.2412c2.0254,0,3.4424,0.4053,4.0791,0.752l-0.7236,2.749
				c-0.7812-0.3477-1.8223-0.6367-3.2109-0.6367c-3.4141,0-6.0752,2.3145-6.0752,7.2041c0,4.5703,2.3428,7.0293,6.0459,7.0293
				c1.2158,0,2.4883-0.2305,3.2988-0.5781L200.8081,141.2976z"/>
			<path d="M215.4155,141.2976c-0.752,0.4053-2.3721,0.7812-4.3975,0.7812c-5.6709,0-9.0557-3.8193-9.0557-9.7793
				c0-6.7402,4.3105-10.2412,9.5186-10.2412c2.0254,0,3.4424,0.4053,4.0791,0.752l-0.7236,2.749
				c-0.7812-0.3477-1.8223-0.6367-3.2109-0.6367c-3.4141,0-6.0752,2.3145-6.0752,7.2041c0,4.5703,2.3428,7.0293,6.0459,7.0293
				c1.2158,0,2.4883-0.2305,3.2988-0.5781L215.4155,141.2976z"/>
			<path d="M224.5845,142.1072c-5.0332,0-8.042-4.1943-8.042-9.9521c0-5.9307,3.2979-10.126,8.332-10.126
				c5.207,0,8.042,4.3398,8.042,9.8369c0,6.7695-3.5293,10.2412-8.3027,10.2412H224.5845z M224.7583,139.3015
				c3.0088,0,4.5713-3.2988,4.5713-7.3193c0-3.6172-1.4463-7.1465-4.5713-7.1465c-3.124,0-4.6289,3.4434-4.6289,7.2617
				c-0.0293,3.8477,1.5918,7.2041,4.5996,7.2041H224.7583z"/>
			<path d="M239.2212,122.3191v11.832c0,3.6162,1.418,5.1504,3.4717,5.1504c2.1982,0,3.5586-1.5342,3.5586-5.1504v-11.832h3.4141
				v11.5146c0,5.6992-2.749,8.2734-7.0596,8.2734c-4.2236,0-6.7988-2.4883-6.7988-8.2158v-11.5723H239.2212z"/>
			<path d="M253.4819,141.8181v-19.499h3.7031l4.5127,8.3604c1.0996,2.0254,2.1992,4.3691,3.0088,6.4229h0.0586
				c-0.2031-2.5752-0.3184-5.2363-0.3184-8.3896v-6.3936h3.124v19.499h-3.4424l-4.542-8.5059
				c-1.0996-2.0254-2.2568-4.3975-3.0957-6.5674h-0.0869c0.1445,2.46,0.2021,5.0918,0.2021,8.5635v6.5098H253.4819z"/>
			<path d="M274.7134,125.2693h-4.9463v-2.9502h13.3369v2.9502h-4.9766v16.5488h-3.4141V125.2693z"/>
			<path d="M287.0659,136.4373l-1.4756,5.3809h-3.4717l5.6992-19.499h4.2529l5.6416,19.499h-3.5879l-1.5332-5.3809H287.0659z
				 M292.0708,133.8337l-1.3311-4.7158c-0.3184-1.2441-0.6367-2.6904-0.8965-3.9062h-0.0576
				c-0.2607,1.2158-0.5791,2.7197-0.8682,3.9062l-1.3311,4.7158H292.0708z"/>
			<path d="M300.2847,141.8181v-19.499h3.7031l4.5127,8.3604c1.0996,2.0254,2.1992,4.3691,3.0088,6.4229h0.0586
				c-0.2031-2.5752-0.3184-5.2363-0.3184-8.3896v-6.3936h3.124v19.499h-3.4424l-4.542-8.5059
				c-1.0996-2.0254-2.2568-4.3975-3.0957-6.5674h-0.0869c0.1445,2.46,0.2021,5.0918,0.2021,8.5635v6.5098H300.2847z"/>
			<path d="M321.5161,125.2693h-4.9463v-2.9502h13.3369v2.9502h-4.9766v16.5488h-3.4141V125.2693z"/>
			<path d="M331.7271,138.115c1.0127,0.6074,2.6035,1.0996,4.1953,1.0996c2.1699,0,3.3848-1.0703,3.3848-2.6621
				c0-1.5039-0.9834-2.3721-3.2109-3.3271c-2.8936-1.2148-4.7744-3.0088-4.7744-5.6123c0-3.124,2.46-5.5547,6.5391-5.5547
				c1.8516,0,3.2979,0.4336,4.1367,0.8682l-0.752,2.835c-0.666-0.3467-1.8516-0.8389-3.4717-0.8389
				c-2.1123,0-3.0381,1.1865-3.0381,2.3438c0,1.5039,1.042,2.1982,3.4717,3.2686c3.0957,1.3887,4.542,3.1533,4.542,5.7285
				c0,3.2402-2.4014,5.8154-7.001,5.8154c-1.8809,0-3.79-0.5498-4.7158-1.0996L331.7271,138.115z"/>
		</g>
	</g>
	<path class="st0" d="M78.1977,74.8006h-8.3904c-0.1806,0-0.3387-0.0931-0.4318-0.2314c-1.0414-1.8006-3.3443-4.7131-7.7159-4.7131
		c-5.7206,0-9.2569,5.0235-9.2569,10.2362c0,4.8853,3.302,10.0499,9.2117,10.0499c4.0527,0,6.5391-2.5061,7.7893-4.8344
		c0.017-0.031,0.0339-0.0649,0.0508-0.096c0.0931-0.1355,0.2512-0.2258,0.4318-0.2258h8.4074c0.2822,0,0.5165,0.2314,0.5165,0.5193
		c0,0.0452-0.008,0.0875-0.0198,0.1298c-0.008,0.0254-0.0142,0.048-0.0226,0.0734c-1.6595,5.3029-7.3095,12.1581-17.1083,12.1581
		c-11.2578,0-18.0537-9.0255-18.0537-17.8223c0-9.3048,7.3547-17.9126,18.1469-17.9126c7.7696,0,14.43,4.7018,16.9164,11.9408
		c0.006,0.017,0.0112,0.031,0.017,0.0452c0.017,0.0508,0.0282,0.1044,0.0282,0.1637
		C78.7142,74.5664,78.4799,74.8006,78.1977,74.8006"/>
	<path class="st0" d="M115.5374,74.8006h-8.3905c-0.1806,0-0.3387-0.0931-0.4318-0.2314c-1.0414-1.8006-3.3443-4.7131-7.7159-4.7131
		c-5.7206,0-9.2569,5.0235-9.2569,10.2362c0,4.8853,3.302,10.0499,9.2117,10.0499c4.0527,0,6.5391-2.5061,7.7893-4.8344
		c0.017-0.031,0.0367-0.0649,0.0536-0.096c0.0931-0.1355,0.2484-0.2258,0.429-0.2258h8.4074c0.2822,0,0.5165,0.2314,0.5165,0.5193
		c0,0.0452-0.008,0.0875-0.0198,0.1298c-0.006,0.0254-0.0142,0.048-0.0226,0.0734c-1.6595,5.3029-7.3095,12.1581-17.1083,12.1581
		c-11.2578,0-18.0509-9.0255-18.0509-17.8223c0-9.3048,7.3519-17.9126,18.1469-17.9126c7.7667,0,14.4272,4.7018,16.9164,11.9408
		c0.003,0.017,0.008,0.031,0.0142,0.0452c0.017,0.0508,0.0282,0.1044,0.0282,0.1637
		C116.0538,74.5664,115.8196,74.8006,115.5374,74.8006"/>
	<path class="st0" d="M30.6671,84.8937l-0.0198-0.0621l-3.1665-10.6228c-0.0367-0.1383-0.1609-0.2399-0.3076-0.2399
		c-0.1439,0-0.2653,0.0931-0.2992,0.2286l-3.1891,10.651l-0.0142,0.0452c-0.0028,0.0198-0.0056,0.0367-0.0056,0.0593
		c0,0.1693,0.1383,0.3048,0.3076,0.3048h6.3923c0.1693,0,0.3076-0.1355,0.3076-0.3048
		C30.6726,84.9332,30.6698,84.9135,30.6671,84.8937 M33.2127,92.556c-0.079-0.1863-0.2625-0.3189-0.4798-0.3189H21.5146
		c-0.2201,0-0.4036,0.1326-0.4826,0.3189l-1.5833,4.3434l0,0c-0.079,0.1863-0.2653,0.3161-0.4741,0.3161h-8.3171
		c-0.2907,0-0.5221-0.2314-0.5221-0.5165c0-0.0677,0.0142-0.1298,0.0367-0.1863l0.0084-0.0254l13.3886-33.3614l0.017-0.0367
		c0.0818-0.1778,0.2596-0.3048,0.4713-0.3048h6.2371c0.2032,0,0.3782,0.1214,0.4628,0.2935l0.0254,0.0677l13.239,33.3248
		L44.05,96.541c0.017,0.0508,0.0282,0.1016,0.0282,0.158c0,0.285-0.2342,0.5165-0.5165,0.5165h-8.4074
		c-0.2173,0-0.4008-0.1298-0.4798-0.3133l-0.0028-0.0112L33.2127,92.556L33.2127,92.556z"/>
	<path class="st0" d="M136.4548,84.8937l-0.02-0.0621l-3.1665-10.6228c-0.0367-0.1383-0.1609-0.2399-0.3105-0.2399
		c-0.1411,0-0.2625,0.0931-0.2963,0.2286l-3.1891,10.651l-0.0112,0.0452c-0.006,0.0198-0.008,0.0367-0.008,0.0593
		c0,0.1693,0.1383,0.3048,0.3076,0.3048h6.3951c0.1666,0,0.3048-0.1355,0.3048-0.3048
		C136.4608,84.9332,136.4588,84.9135,136.4548,84.8937 M139.0004,92.556c-0.079-0.1863-0.2625-0.3189-0.4798-0.3189h-11.2183
		c-0.2173,0-0.4036,0.1326-0.4826,0.3189l-1.5833,4.3434l0,0c-0.079,0.1863-0.2653,0.3161-0.477,0.3161h-8.3143
		c-0.2907,0-0.5221-0.2314-0.5221-0.5165c0-0.0677,0.0142-0.1298,0.0367-0.1863l0.008-0.0254l13.3886-33.3614l0.017-0.0367
		c0.0818-0.1778,0.2625-0.3048,0.4713-0.3048h6.2371c0.2032,0,0.3782,0.1214,0.4629,0.2935l0.0254,0.0677l13.239,33.3248
		l0.0282,0.0706c0.016,0.0508,0.0282,0.1016,0.0282,0.158c0,0.285-0.2342,0.5165-0.5165,0.5165h-8.4074
		c-0.2173,0-0.4007-0.1298-0.4798-0.3133l-0.002-0.0112l-1.4591-4.3349L139.0004,92.556z"/>
</g>
</svg>
