<?xml version="1.0" encoding="utf-8"?>
<!-- Generator: Adobe Illustrator 21.0.2, SVG Export Plug-In . SVG Version: 6.00 Build 0)  -->
<svg version="1.1" id="Layer_1" xmlns="http://www.w3.org/2000/svg" xmlns:xlink="http://www.w3.org/1999/xlink" x="0px" y="0px"
	 viewBox="0 0 436.9209 231.1624" style="enable-background:new 0 0 436.9209 231.1624;" xml:space="preserve">
<style type="text/css">
	.st0{fill:#E3000F;}
</style>
<g>
	<path d="M74.9622,108.1017c-0.105-0.253-1.073-2.695-1.173-2.924c-0.03-0.067-0.071-0.138-0.178-0.17
		c-0.122-0.038-0.269,0.01-0.337,0.15c-0.5,1.026-1.147,2.407-1.574,3.347c-0.044,0.098-0.025,0.188,0.003,0.259
		c0.392,0.996,0.857,2.145,1.158,2.902c0.101,0.255,0.419,0.217,0.508,0.023c0.148-0.325,1.098-2.397,1.58-3.351
		C74.9842,108.2677,74.9952,108.1797,74.9622,108.1017"/>
	<path d="M89.7091,146.4147c-2.74,6.328-12.153,14.399-14.551,18.88l6.496-0.003c2.747-3.544,7.978-8.23,10.61-12.431
		c0.236-0.378,0.293-0.717,0.172-1.015c-0.569-1.399-2.003-5.006-2.176-5.449c-0.085-0.215-0.256-0.233-0.374-0.19
		C89.7801,146.2447,89.7441,146.3337,89.7091,146.4147"/>
	<path d="M95.2483,158.8921c-0.459-1.149-1.381-3.464-1.512-3.791c-0.045-0.113-0.113-0.149-0.179-0.172
		c-0.111-0.039-0.248,0.016-0.301,0.09c-2.669,3.617-6.82,6.308-10.011,10.273l6.516-0.002c1.052-1.079,4.381-3.692,5.43-5.541
		C95.3203,159.5211,95.3783,159.2181,95.2483,158.8921"/>
	<path d="M88.6142,142.2664c-0.177-0.426-11.995-30.009-12.054-30.162c-0.023-0.06-0.105-0.171-0.248-0.174
		c-0.106-0.002-0.213,0.055-0.265,0.165c-0.521,1.094-1.115,2.415-1.534,3.36c-0.026,0.059-0.069,0.146-0.013,0.287
		c1.497,3.806,5.926,14.327,7.254,19.258c0.429,1.591,0.697,3.08,0.697,3.798c0,5.314-5.596,12.308-9.232,18.042
		c-3.636,5.735-3.234,8.454-3.234,8.454l3.575-0.003c2.184-4.3,12.441-14.248,15.067-22.376
		C88.6962,142.7024,88.6812,142.4284,88.6142,142.2664"/>
	<path d="M95.8783,161.6843c-1.624,1.498-3.507,2.762-4.517,3.601l6.45,0.007c0,0-1.319-3.279-1.436-3.577
		c-0.046-0.112-0.17-0.166-0.275-0.16C96.0113,161.5603,95.9503,161.6173,95.8783,161.6843"/>
	<rect x="63.597" y="168.5089" width="40.595" height="7.184"/>
	<path class="st0" d="M117.5522,105.1546c0.3597,0.3107,1.2536,0.7151,1.6852,0.9406c0.7011-8.0013,2.0341-23.2172,2.0488-23.3985
		c0.01-0.135-0.099-0.276-0.25-0.289c-0.176-0.015-0.286,0.107-0.305,0.223c-0.0206,0.1303-2.0989,14.285-3.2938,22.4244
		C117.4762,105.0891,117.5104,105.1184,117.5522,105.1546z"/>
	<path class="st0" d="M134.5544,87.711c-0.12-0.094-0.296-0.064-0.379,0.043c-0.1123,0.1426-9.5028,12.2933-14.4031,18.6342
		c0.3006,0.1519,0.5723,0.2891,0.5319,0.4744c-0.098,0.458-0.697,0.5-1.421,0.367c-0.525-0.096-1.193-0.703-1.5569-0.573
		c-0.0698,0.0245-0.1652,0.1425-0.1766,0.3593c-0.324,2.207-0.5344,3.6398-0.5344,3.6398l-0.004,0.025v0.005l-0.001,0.007h0.001
		c-0.0236,0.2338,0.0444,0.4481,0.1505,0.6393c0.0175,0.0344,0.0322,0.0681,0.0534,0.1007
		c0.0427,0.0612,0.0938,0.1108,0.1478,0.1623c0.0414,0.0423,0.0692,0.0938,0.1185,0.13c0.0244,0.0179,0.0536,0.0211,0.0789,0.0367
		c0.0153,0.0089,0.032,0.0141,0.0479,0.0223c0.4769,0.2637,1.0804,0.1602,1.4163-0.287v0.001l0.004-0.006l0.003-0.004l0.014-0.021
		c0,0,15.879-23.231,15.982-23.386C134.6924,87.982,134.6945,87.819,134.5544,87.711z"/>
	<path d="M117.1497,107.0158c0.0114-0.2167,0.1068-0.3347,0.1766-0.3593c0.364-0.13,1.032,0.477,1.5569,0.573
		c0.724,0.133,1.3231,0.091,1.421-0.367c0.0405-0.1853-0.2313-0.3224-0.5319-0.4744c0.1339-0.1733,0.2725-0.3527,0.4128-0.5342
		c-0.1541-0.1956-0.3195-0.3765-0.4736-0.5156c-0.136-0.1227-0.2586-0.2191-0.3806-0.3121
		c-0.0322,0.3669-0.0637,0.7266-0.0936,1.0689c-0.4316-0.2255-1.3255-0.6299-1.6852-0.9406
		c-0.0418-0.0362-0.076-0.0655-0.1148-0.0994c0.0449-0.3058,0.0914-0.6227,0.1387-0.9445c-0.322-0.1459-0.4425-0.2072-0.8375-0.1983
		c-1.236,0.027-2.482,0.039-3.243,0.039c-0.329,0-0.558,0.054-1.15-0.314c-0.59-0.367-6.91-4.485-9.569-6.26
		c-0.507-0.338-0.894-0.53-1.104-1.372c-0.249-0.997-1.218-5.08-1.587-6.582c-0.369-1.504-0.53-2.999-0.706-4.464
		c-0.239-1.987-0.662-3.824-1.117-4.768c-0.346-0.718-1.02-1.871-3.887-2.483c-1.061-0.227-3.741-1.136-4.475-3.637
		c-0.116-0.393-0.569-2.815,0.7599-3.829c0.689-0.527,2.0161-1.624,2.776-3.011c0.538-0.984,1.539-3.353,0-5.661
		c-0.354-0.621,0.367-4.453-3.331-6.237c-0.803-0.388-1.728-0.524-2.404-0.288c-0.402,0.139-0.621,0.311-0.979,0.262
		c-1.277-0.175-2.502,0.266-3.003,0.617c-0.708,0.498-0.957,0.982-1.193,1.416c-0.162,0.295-0.294,0.356-0.678,0.524
		c-0.901,0.394-2.238,1.468-2.343,3.461c-0.067,1.269,0.657,2.567,0.682,3.305c0.047,1.368,0.685,2.462,1.16,2.937
		c0.128,0.128,0.298,0.102,0.4,0.0099c0.09-0.081,0.091-0.191,0.082-0.259c-0.174-1.334,0.303-2.048,0.377-2.767
		c0.026-2.15,1.178-2.98,2.138-3.282c0.778-0.245,1.931-0.298,2.679,0.021c0.748,0.319,0.905,1.229,0.801,1.95
		c-0.039,0.264-0.11,0.638-0.479,0.918c-0.461,0.35-1.113,0.1609-1.488,0.845c-0.551,1.003-0.109,4.42,0,5.148
		c0.121,0.815,0.033,1.32-0.197,1.592c-0.339,0.405-0.96,0.276-1.6089,0.013c-0.04-0.016-0.112-0.038-0.205-0.009
		c-0.085,0.025-0.164,0.111-0.178,0.219c-0.069,0.516,0.167,1.66,0.627,2.717c0.892,2.045,2.491,3.454,2.938,4.021
		c1.1591,1.474,1.843,3.7-0.935,4.371c-2.058,0.497-4.735-0.092-5.874-0.944c-2.284-1.708-1.962-3.91-1.207-5.083
		c0.106-0.166,0.092-0.2859,0.035-0.3719c-0.069-0.104-0.214-0.1461-0.318-0.112c-0.716,0.231-1.788,0.3929-2.767,0.847
		c-0.938,0.436-1.741,1.259-2.098,2.676c-0.822,3.2531-0.754,5.051-1.0681,6.94c-0.434,2.603-0.899,4.153-1.529,6.552
		c-0.069,0.265-0.213,0.425-0.484,0.316c-2.06-0.827-3.817-1.719-5.705-2.611c-0.25-0.118-0.684-0.362-1.076-0.725
		c-0.996-0.927-1.59-1.451-2.504-2.304c-0.248-0.231-0.68-0.383-1.183-0.384c-0.679-0.001-1.412,0.0161-1.933-0.0229
		c-0.166-0.013-0.287-0.111-0.336-0.246c-0.464-1.263-1.12-3.064-1.255-3.448c-0.1219-0.346-0.638-0.793-1.298-0.607
		c-0.652,0.184-0.896,0.906-0.708,1.381c0.125,0.319,0.827,2.102,1.337,3.362c0.017,0.043,0.0439,0.153-0.0161,0.253
		c-0.0359,0.062-0.104,0.118-0.229,0.139c-0.284,0.047-0.549,0.185-0.5569,0.533c-0.01,0.46,0.566,0.6169,0.413,1.028
		c-0.054,0.143-0.171,0.262-0.209,0.501c-0.05,0.312,0.218,0.618,0.655,0.8979c0.4821,0.308,0.618,1.088,1.696,1.447
		c0.158,0.052,0.229,0.079,0.31,0.274c1.577,3.814,17.795,43.116,18.267,44.218c0.115,0.267,0.429,0.332,0.645,0.207
		c0.219-0.126,0.271-0.3849,0.203-0.5569c-0.559-1.4171-11.466-29.348-16.961-43.635c-0.01-0.024-0.044-0.125,0.027-0.243
		c0.052-0.0891,0.14-0.125,0.232-0.124c0.452,0.003,1.083-0.02,1.605,0.031c0.628,0.061,1.092,0.341,1.38,0.543
		c1.77,1.236,6.482,4.761,8.405,6.069c0.301,0.204,1.016,0.388,1.364,0.211c0.544-0.277,0.984-0.973,1.326-1.744
		c0.668-1.508,1.675-4.685,2.183-6.962c0.038-0.17,0.206-0.295,0.364-0.292c0.181,0.004,0.34,0.11,0.377,0.271
		c0.25,1.091,1.7,4.99,1.772,7.175c0.036,1.081-0.813,3.08-1.1,4.3c-0.013,0.055-0.006,0.147,0.079,0.196
		c0.05,0.029,0.134,0.029,0.196-0.03c0.197-0.187,1.723-1.909,3.813-3.163c2.623-1.574,6.189-2.718,9.501-5.429
		c0.204-0.168,0.434-0.082,0.537,0.027c0.138,0.147,0.157,0.341,0.019,0.53c-2.732,3.774-10.407,7.189-13.397,11.385
		c-1.083,1.52-0.83,2.318-0.699,2.657c0.601,1.559,3.191,8.373,4.011,10.512c0.05,0.13,0.256,0.279,0.449,0.104
		c0.385-0.346,1.349-1.21,1.78-1.594c0.308-0.275,0.676-0.07,0.763,0.159c0.497,1.331,2.434,6.37,2.839,7.437
		c0.136,0.359-0.054,0.66-0.315,0.779c-0.281,0.126-0.654,0.046-0.804-0.351c-0.296-0.778-1.603-4.207-2.009-5.265
		c-0.058-0.152-0.285-0.243-0.453-0.092c-0.293,0.265-0.778,0.698-1.201,1.085c-0.046,0.042-0.132,0.148-0.072,0.308
		c0.18,0.475,3.53,9.27,3.967,10.405c0.054,0.14,0.2841,0.2451,0.449,0.095c0.387-0.354,1.59-1.439,1.807-1.64
		c0.189-0.175,0.599-0.165,0.747,0.231c0.498,1.326,2.39,6.246,2.823,7.395c0.121,0.321-0.013,0.659-0.298,0.793
		c-0.28,0.132-0.672,0.023-0.806-0.328c-0.287-0.747-1.768-4.629-2.023-5.304c-0.07-0.183-0.328-0.199-0.436-0.101
		c-0.0909,0.082-0.8329,0.761-1.213,1.097c-0.096,0.084-0.115,0.213-0.071,0.328c2.671,7.006,5.682,14.93,5.908,15.489
		c0.06,0.151,0.209,0.199,0.325,0.168c0.109-0.029,0.191-0.114,0.21-0.236c1.085-7.474,4.865-26.753,2.792-38.3979
		c-0.596-3.35-3.601-9.738-3.881-12.256c-0.279-2.518,0.437-4.983,1.246-7.045c0.194-0.497,0.673-0.437,0.834,0.104
		c0.386,1.287,1.33,4.485,1.737,5.849c0.276,0.929,0.339,1.342,1.052,1.687c3.672,1.784,12.501,5.919,12.99,6.129
		c0.49,0.209,1.713,0.851,2.544,1.1801c1.0521,0.416,1.9069,0.3508,2.7505,0.5104
		C117.0254,107.8628,117.0845,107.46,117.1497,107.0158z"/>
	<g>
		<g>
			<path d="M145.6545,108.8927V87.6525h5.1602v21.2402H145.6545z"/>
			<path d="M172.1741,108.5177c-1.3799,0.6299-2.9697,0.9453-4.7705,0.9453c-1.6396,0-3.1553-0.2705-4.5449-0.8105
				s-2.5947-1.3047-3.6143-2.2949c-1.0205-0.9902-1.8203-2.1748-2.4004-3.5547s-0.8701-2.8994-0.8701-4.5605
				c0-1.6992,0.2949-3.2393,0.8848-4.6191c0.5898-1.3809,1.4053-2.5547,2.4453-3.5254c1.04-0.9697,2.2598-1.7148,3.6602-2.2354
				c1.3994-0.5195,2.9102-0.7793,4.5303-0.7793c1.5,0,2.9746,0.2646,4.4248,0.7949c1.4492,0.5303,2.625,1.3047,3.5244,2.3242
				l-3.4795,3.4805c-0.4805-0.6602-1.1104-1.1494-1.8906-1.4697c-0.7793-0.3203-1.5801-0.4805-2.3994-0.4805
				c-0.9004,0-1.7256,0.165-2.4756,0.4951s-1.3945,0.7852-1.9346,1.3652s-0.96,1.2646-1.2598,2.0547s-0.4502,1.6553-0.4502,2.5947
				c0,0.96,0.1504,1.8408,0.4502,2.6406s0.7148,1.4844,1.2451,2.0547c0.5293,0.5703,1.1641,1.0156,1.9043,1.335
				c0.7402,0.3203,1.5498,0.4805,2.4307,0.4805c1.0195,0,1.9092-0.2002,2.6699-0.6006c0.7598-0.3994,1.3691-0.9199,1.8301-1.5596
				l3.5693,3.3594C174.7131,107.0324,173.5539,107.8878,172.1741,108.5177z"/>
			<path d="M194.6438,108.8927l-1.6494-4.1699h-8.2197l-1.5605,4.1699h-5.5801l8.9102-21.2402h4.9805l8.8193,21.2402H194.6438z
				 M188.9446,93.3224l-2.7002,7.29h5.3398L188.9446,93.3224z"/>
			<path d="M204.2141,108.8927V87.6525h14.2803v4.3203h-9.3301v4.0195h8.8193v4.1104h-8.8193v4.4102h9.8691v4.3799H204.2141z"/>
			<path d="M246.9934,108.8927h-5.0693l-4.2002-14.3701h-0.0898l-4.2002,14.3701h-5.1006l-6.0293-21.2402h5.5195l3.3604,14.1299
				h0.0898l3.7803-14.1299h5.3398l3.8096,14.1299h0.0908l3.4199-14.1299h5.3398L246.9934,108.8927z"/>
		</g>
		<g>
			<path d="M164.2541,138.9826c-0.8398,1.1396-1.9297,2.0654-3.2695,2.7744c-1.3408,0.71-2.9502,1.0654-4.8301,1.0654
				c-1.6201,0-3.1152-0.2754-4.4854-0.8252s-2.5498-1.3203-3.54-2.3096c-0.9902-0.9902-1.7646-2.1699-2.3252-3.54
				c-0.5596-1.3701-0.8398-2.875-0.8398-4.5156c0-1.6592,0.2852-3.1748,0.8555-4.5449c0.5693-1.3691,1.3594-2.5391,2.3701-3.5098
				c1.0098-0.9697,2.2051-1.7246,3.585-2.2646s2.8799-0.8105,4.5-0.8105c0.7197,0,1.4492,0.0703,2.1895,0.21
				c0.7402,0.1406,1.4502,0.3506,2.1299,0.6299c0.6797,0.2803,1.2998,0.626,1.8604,1.0352c0.5596,0.4102,1.04,0.8857,1.4404,1.4248
				l-2.3408,1.8008c-0.5195-0.7207-1.2549-1.3154-2.2051-1.7852c-0.9492-0.4697-1.9746-0.7051-3.0742-0.7051
				c-1.2402,0-2.3555,0.2246-3.3457,0.6748c-0.9893,0.4502-1.835,1.0654-2.5342,1.8447c-0.7012,0.7803-1.2412,1.6855-1.6201,2.7158
				c-0.3809,1.0303-0.5703,2.125-0.5703,3.2842c0,1.2002,0.1846,2.3203,0.5547,3.3604s0.9004,1.9453,1.5898,2.7148
				c0.6904,0.7705,1.5303,1.376,2.5205,1.8154s2.0947,0.6602,3.3154,0.6602c1.1992,0,2.2891-0.2402,3.2695-0.7207
				c0.9795-0.4795,1.79-1.1797,2.4297-2.0996L164.2541,138.9826z"/>
			<path d="M168.6946,121.0421h2.9697v8.8799h10.7402v-8.8799h3v21.2402h-3v-9.7197h-10.7402v9.7197h-2.9697V121.0421z"/>
			<path d="M192.9944,142.2824h-3.3008l9.21-21.2402h2.7002l9.1201,21.2402h-3.3604l-2.1592-5.2197h-10.0801L192.9944,142.2824z
				 M196.1741,134.4523h7.9502l-3.96-9.96L196.1741,134.4523z"/>
			<path d="M217.9836,142.2824h-2.9697v-21.2402h6.8096c1.0205,0,1.9902,0.1055,2.9102,0.3154s1.7246,0.5449,2.415,1.0049
				c0.6895,0.46,1.2344,1.0645,1.6348,1.8145s0.6006,1.665,0.6006,2.7451c0,1.5605-0.4805,2.8203-1.4404,3.7803
				s-2.2002,1.5703-3.7197,1.8301l5.9395,9.75h-3.5996l-5.4004-9.4502h-3.1797V142.2824z M217.9836,130.3419h3.4199
				c0.7002,0,1.3496-0.0596,1.9502-0.1797c0.5996-0.1201,1.125-0.3145,1.5752-0.585c0.4492-0.2695,0.8047-0.6191,1.0645-1.0498
				c0.2598-0.4297,0.3906-0.9648,0.3906-1.6055c0-0.6396-0.1309-1.1748-0.3906-1.6045s-0.6045-0.7754-1.0352-1.0352
				c-0.4297-0.2598-0.9346-0.4453-1.5146-0.5547c-0.5801-0.1104-1.1904-0.165-1.8301-0.165h-3.6299V130.3419z"/>
			<path d="M242.6135,142.2824h-2.9697v-18.6299h-6.8096v-2.6104h16.5898v2.6104h-6.8105V142.2824z"/>
			<path d="M256.7434,139.6427h11.0996v2.6396h-14.0694v-21.2402h13.6201v2.6104h-10.6504v6.3603h10.0195v2.5498h-10.0195V139.6427z
				"/>
			<path d="M276.0334,142.2824h-2.9697v-21.2402h6.8096c1.0205,0,1.9902,0.1055,2.9102,0.3154s1.7246,0.5449,2.415,1.0049
				c0.6895,0.46,1.2344,1.0645,1.6348,1.8145s0.6006,1.665,0.6006,2.7451c0,1.5605-0.4805,2.8203-1.4404,3.7803
				s-2.2002,1.5703-3.7197,1.8301l5.9395,9.75h-3.5996l-5.4004-9.4502h-3.1797V142.2824z M276.0334,130.3419h3.4199
				c0.7002,0,1.3496-0.0596,1.9502-0.1797c0.5996-0.1201,1.125-0.3145,1.5752-0.585c0.4492-0.2695,0.8047-0.6191,1.0645-1.0498
				c0.2598-0.4297,0.3906-0.9648,0.3906-1.6055c0-0.6396-0.1309-1.1748-0.3906-1.6045s-0.6045-0.7754-1.0352-1.0352
				c-0.4297-0.2598-0.9346-0.4453-1.5146-0.5547c-0.5801-0.1104-1.1904-0.165-1.8301-0.165h-3.6299V130.3419z"/>
			<path d="M295.9827,139.6427h11.1006v2.6396h-14.0703v-21.2402h13.6201v2.6104h-10.6504v6.3603h10.0205v2.5498h-10.0205V139.6427z
				"/>
			<path d="M312.303,121.0421h7.29c1.3604,0,2.7197,0.2002,4.0801,0.6006s2.5898,1.0303,3.6904,1.8896
				c1.0996,0.8604,1.9893,1.96,2.6699,3.2998c0.6797,1.3408,1.0195,2.9502,1.0195,4.8301c0,1.8203-0.3398,3.3955-1.0195,4.7256
				c-0.6807,1.3301-1.5703,2.4297-2.6699,3.2998c-1.1006,0.8701-2.3301,1.5195-3.6904,1.9502
				c-1.3604,0.4297-2.7197,0.6445-4.0801,0.6445h-7.29V121.0421z M315.2727,139.672h3.7207c1.2793,0,2.4648-0.1797,3.5547-0.54
				c1.0898-0.3594,2.0293-0.8799,2.8203-1.5596c0.79-0.6797,1.4043-1.5195,1.8447-2.5205c0.4395-0.999,0.6602-2.1299,0.6602-3.3896
				c0-1.3203-0.2207-2.4795-0.6602-3.4795c-0.4404-1-1.0547-1.835-1.8447-2.5059c-0.791-0.6689-1.7305-1.1797-2.8203-1.5293
				s-2.2754-0.5254-3.5547-0.5254h-3.7207V139.672z"/>
		</g>
		<g>
			<g>
				<path d="M146.9143,175.6925h-3.2998l9.21-21.2402h2.7002l9.1201,21.2402h-3.3604l-2.1602-5.2197h-10.0801L146.9143,175.6925z
					 M150.094,167.8624h7.9502l-3.96-9.96L150.094,167.8624z"/>
				<path d="M186.0344,172.3927c-0.8398,1.1396-1.9307,2.0654-3.2705,2.7744c-1.3398,0.71-2.9502,1.0654-4.8301,1.0654
					c-1.6201,0-3.1152-0.2754-4.4844-0.8252c-1.3701-0.5498-2.5508-1.3203-3.54-2.3096c-0.9902-0.9902-1.7656-2.1699-2.3252-3.54
					c-0.5605-1.3701-0.8398-2.875-0.8398-4.5156c0-1.6592,0.2852-3.1748,0.8545-4.5449c0.5703-1.3691,1.3604-2.5391,2.3701-3.5098
					c1.0098-0.9697,2.2051-1.7246,3.585-2.2646s2.8799-0.8105,4.5-0.8105c0.7197,0,1.4502,0.0703,2.1904,0.21
					c0.7393,0.1406,1.4492,0.3506,2.1299,0.6299c0.6797,0.2803,1.2998,0.626,1.8604,1.0352
					c0.5596,0.4102,1.0391,0.8857,1.4395,1.4248l-2.3398,1.8008c-0.5205-0.7207-1.2559-1.3154-2.2051-1.7852
					c-0.9502-0.4697-1.9756-0.7051-3.0752-0.7051c-1.2402,0-2.3545,0.2246-3.3447,0.6748s-1.835,1.0654-2.5352,1.8447
					c-0.7002,0.7803-1.2402,1.6855-1.6201,2.7158s-0.5693,2.125-0.5693,3.2842c0,1.2002,0.1846,2.3203,0.5547,3.3604
					s0.8994,1.9453,1.5898,2.7148c0.6904,0.7705,1.5303,1.376,2.5195,1.8154c0.9902,0.4395,2.0957,0.6602,3.3154,0.6602
					c1.2002,0,2.29-0.2402,3.2705-0.7207c0.9795-0.4795,1.7891-1.1797,2.4297-2.0996L186.0344,172.3927z"/>
				<path d="M208.2043,172.3927c-0.8398,1.1396-1.9307,2.0654-3.2705,2.7744c-1.3398,0.71-2.9502,1.0654-4.8301,1.0654
					c-1.6201,0-3.1152-0.2754-4.4844-0.8252c-1.3701-0.5498-2.5508-1.3203-3.54-2.3096c-0.9902-0.9902-1.7656-2.1699-2.3252-3.54
					c-0.5605-1.3701-0.8398-2.875-0.8398-4.5156c0-1.6592,0.2852-3.1748,0.8545-4.5449c0.5703-1.3691,1.3604-2.5391,2.3701-3.5098
					c1.0098-0.9697,2.2051-1.7246,3.585-2.2646s2.8799-0.8105,4.5-0.8105c0.7197,0,1.4502,0.0703,2.1904,0.21
					c0.7393,0.1406,1.4492,0.3506,2.1299,0.6299c0.6797,0.2803,1.2998,0.626,1.8604,1.0352
					c0.5596,0.4102,1.0391,0.8857,1.4395,1.4248l-2.3398,1.8008c-0.5205-0.7207-1.2559-1.3154-2.2051-1.7852
					c-0.9502-0.4697-1.9756-0.7051-3.0752-0.7051c-1.2402,0-2.3545,0.2246-3.3447,0.6748s-1.835,1.0654-2.5352,1.8447
					c-0.7002,0.7803-1.2402,1.6855-1.6201,2.7158s-0.5693,2.125-0.5693,3.2842c0,1.2002,0.1846,2.3203,0.5547,3.3604
					s0.8994,1.9453,1.5898,2.7148c0.6904,0.7705,1.5303,1.376,2.5195,1.8154c0.9902,0.4395,2.0957,0.6602,3.3154,0.6602
					c1.2002,0,2.29-0.2402,3.2705-0.7207c0.9795-0.4795,1.7891-1.1797,2.4297-2.0996L208.2043,172.3927z"/>
				<path d="M233.5539,165.0421c0,1.6406-0.2852,3.1455-0.8555,4.5156c-0.5693,1.3701-1.3545,2.5498-2.3545,3.54
					c-1.001,0.9893-2.1904,1.7598-3.5703,2.3096s-2.8799,0.8252-4.5,0.8252s-3.1152-0.2754-4.4854-0.8252
					s-2.5547-1.3203-3.5547-2.3096c-1-0.9902-1.7803-2.1699-2.3398-3.54c-0.5605-1.3701-0.8398-2.875-0.8398-4.5156
					c0-1.6592,0.2793-3.1748,0.8398-4.5449c0.5596-1.3691,1.3398-2.5391,2.3398-3.5098c1-0.9697,2.1846-1.7246,3.5547-2.2646
					s2.8652-0.8105,4.4854-0.8105s3.1201,0.2705,4.5,0.8105s2.5693,1.2949,3.5703,2.2646c1,0.9707,1.7852,2.1406,2.3545,3.5098
					C233.2688,161.8673,233.5539,163.3829,233.5539,165.0421z M230.344,165.0421c0-1.1592-0.1904-2.2539-0.5703-3.2842
					s-0.9199-1.9355-1.6201-2.7158c-0.7002-0.7793-1.5449-1.3945-2.5352-1.8447c-0.9893-0.4502-2.1045-0.6748-3.3447-0.6748
					c-1.2197,0-2.3252,0.2246-3.3154,0.6748c-0.9893,0.4502-1.8291,1.0654-2.5195,1.8447
					c-0.6904,0.7803-1.2256,1.6855-1.6055,2.7158s-0.5693,2.125-0.5693,3.2842c0,1.1807,0.1895,2.291,0.5693,3.3301
					c0.3799,1.04,0.9199,1.9453,1.6201,2.7148c0.7002,0.7705,1.54,1.376,2.5205,1.8154c0.9795,0.4404,2.0801,0.6602,3.2998,0.6602
					s2.3301-0.2197,3.3301-0.6602c1-0.4395,1.8496-1.0449,2.5498-1.8154c0.7002-0.7695,1.2402-1.6748,1.6201-2.7148
					C230.1535,167.3331,230.344,166.2228,230.344,165.0421z"/>
				<path d="M247.1438,176.2326c-1.4004,0-2.6201-0.2354-3.6602-0.7051s-1.9004-1.0947-2.5801-1.875s-1.1846-1.6748-1.5146-2.6846
					s-0.4951-2.0557-0.4951-3.1357v-13.3799h2.9697v13.2002c0,0.7197,0.0908,1.4355,0.2705,2.1455s0.4746,1.3447,0.8848,1.9043
					c0.4102,0.5605,0.9502,1.0107,1.6201,1.3506s1.5049,0.5098,2.5049,0.5098c0.9795,0,1.8096-0.1699,2.4902-0.5098
					c0.6797-0.3398,1.2246-0.79,1.6348-1.3506c0.4102-0.5596,0.7051-1.1943,0.8848-1.9043c0.1807-0.71,0.2705-1.4258,0.2705-2.1455
					v-13.2002h2.9697v13.3799c0,1.0801-0.165,2.126-0.4951,3.1357s-0.835,1.9043-1.5146,2.6846
					c-0.6807,0.7803-1.54,1.4053-2.5801,1.875S248.5432,176.2326,247.1438,176.2326z"/>
				<path d="M276.9036,171.4328h0.0596v-16.9805h2.9707v21.2402h-3.75l-11.2207-17.3398h-0.0596v17.3398h-2.9697v-21.2402h3.8701
					L276.9036,171.4328z"/>
				<path d="M294.0334,175.6925h-2.9707v-18.6299h-6.8096v-2.6104h16.5898v2.6104h-6.8096V175.6925z"/>
				<path d="M303.8127,175.6925h-3.2998l9.21-21.2402h2.7002l9.1201,21.2402h-3.3604l-2.1602-5.2197h-10.0801L303.8127,175.6925z
					 M306.9924,167.8624h7.9502l-3.96-9.96L306.9924,167.8624z"/>
				<path d="M340.7727,171.4328h0.0596v-16.9805h2.9707v21.2402h-3.75l-11.2207-17.3398h-0.0596v17.3398h-2.9697v-21.2402h3.8701
					L340.7727,171.4328z"/>
				<path d="M357.9026,175.6925h-2.9707v-18.6299h-6.8096v-2.6104h16.5898v2.6104h-6.8096V175.6925z"/>
				<path d="M379.6819,158.3829c-0.4199-0.5801-0.9902-1.0547-1.71-1.4258c-0.7197-0.3691-1.5303-0.5547-2.4297-0.5547
					c-0.4805,0-0.9658,0.0654-1.4551,0.1953c-0.4902,0.1299-0.9355,0.3398-1.335,0.6299c-0.4004,0.29-0.7256,0.6504-0.9756,1.0801
					s-0.375,0.9443-0.375,1.5449c0,0.5801,0.1152,1.0645,0.3457,1.4551c0.2295,0.3896,0.54,0.7197,0.9297,0.9902
					c0.3896,0.2695,0.8496,0.5,1.3799,0.6895c0.5303,0.1904,1.0947,0.3857,1.6953,0.585c0.7197,0.2207,1.4492,0.4707,2.1895,0.75
					c0.7402,0.2803,1.4102,0.6504,2.0107,1.1104c0.5996,0.46,1.0898,1.0352,1.4697,1.7246c0.3799,0.6904,0.5703,1.5654,0.5703,2.625
					c0,1.1006-0.2061,2.0547-0.6152,2.8652c-0.4102,0.8096-0.9551,1.4805-1.6348,2.0098c-0.6807,0.5303-1.4658,0.9258-2.3555,1.1855
					s-1.8047,0.3896-2.7451,0.3896c-1.3398,0-2.6348-0.2598-3.8848-0.7803c-1.25-0.5195-2.2852-1.29-3.1055-2.3096l2.3105-1.9502
					c0.5,0.7402,1.1699,1.3398,2.0098,1.7998c0.8398,0.4609,1.75,0.6904,2.7305,0.6904c0.499,0,0.999-0.0703,1.5-0.21
					c0.499-0.1396,0.9541-0.3604,1.3643-0.6602s0.7451-0.6748,1.0049-1.125s0.3906-0.9951,0.3906-1.6348
					c0-0.6406-0.1348-1.1748-0.4053-1.6055c-0.2695-0.4297-0.6348-0.7949-1.0947-1.0947c-0.4609-0.2998-0.9951-0.5547-1.6055-0.7656
					c-0.6104-0.21-1.2549-0.4238-1.9346-0.6445c-0.6807-0.1992-1.3506-0.4453-2.0098-0.7354
					c-0.6602-0.2891-1.251-0.6592-1.7705-1.1094c-0.5205-0.4502-0.9404-1.0049-1.2598-1.665
					c-0.3203-0.6602-0.4805-1.4805-0.4805-2.46c0-1.0605,0.2148-1.9697,0.6455-2.7305c0.4297-0.7598,0.9902-1.3896,1.6797-1.8896
					c0.6904-0.5,1.4697-0.8652,2.3398-1.0947c0.8701-0.2305,1.7451-0.3457,2.625-0.3457c1.2402,0,2.4004,0.2207,3.4805,0.6602
					c1.0801,0.4404,1.9502,1.0303,2.6104,1.7705L379.6819,158.3829z"/>
			</g>
		</g>
	</g>
</g>
</svg>
